<svg width="62" height="62" viewBox="0 0 62 62" fill="none" xmlns="http://www.w3.org/2000/svg">
<path d="M59.458 35.898C59.396 35.836 59.334 35.712 59.272 35.65C59.21 35.588 59.148 35.588 59.086 35.588L59.148 35.526C59.21 35.464 59.334 35.402 59.334 35.278H59.396C59.458 35.216 59.396 35.216 59.334 35.154C59.334 34.348 59.334 33.48 59.334 32.674C59.396 32.612 59.396 32.55 59.396 32.426C59.272 32.302 59.21 32.178 59.148 32.054C59.086 31.93 59.086 31.744 59.148 31.62C59.21 31.558 59.272 31.434 59.334 31.31L59.272 31.248V31.186C59.21 31.062 59.148 30.876 59.086 30.752C59.148 30.69 59.148 30.69 59.21 30.566C59.148 30.194 59.334 29.822 59.086 29.512C59.024 29.45 59.024 29.388 59.086 29.388C58.9 29.078 59.024 28.768 59.086 28.396C59.086 28.272 59.086 28.21 59.024 28.086C58.962 27.962 58.9 27.838 58.714 27.776C58.652 27.776 58.528 27.714 58.466 27.776C58.404 27.838 58.342 27.838 58.218 27.9C58.218 27.776 58.218 27.652 58.156 27.528C58.094 27.466 58.032 27.404 57.97 27.404C58.094 27.218 58.218 27.218 58.404 27.156C58.404 27.032 58.404 26.908 58.404 26.784C58.404 26.598 58.404 26.412 58.404 26.164C58.404 26.164 58.404 26.164 58.466 26.102C58.466 26.04 58.466 26.04 58.404 25.978C58.218 25.73 58.218 25.42 58.218 25.11C58.032 24.924 58.032 24.738 58.032 24.49C57.97 24.428 57.97 24.428 57.97 24.366C57.908 24.18 57.908 23.994 57.784 23.87C57.722 23.808 57.722 23.808 57.722 23.746C57.722 23.622 57.66 23.622 57.598 23.622C57.66 23.498 57.66 23.374 57.536 23.25C57.35 23.064 57.288 22.878 57.288 22.63C57.164 22.506 57.102 22.382 57.102 22.196C56.978 22.072 57.04 21.886 56.916 21.762C56.792 21.638 56.854 21.452 56.73 21.328C56.606 21.204 56.668 21.018 56.544 20.894C56.482 20.832 56.42 20.708 56.42 20.646C56.42 20.584 56.42 20.522 56.358 20.46C56.296 20.398 56.296 20.336 56.234 20.274C56.172 20.212 56.172 20.15 56.11 20.088C56.048 20.026 56.048 19.964 55.986 19.902C55.986 19.84 55.924 19.778 55.862 19.716C55.8 19.654 55.8 19.592 55.738 19.53C55.676 19.468 55.676 19.406 55.614 19.406C55.552 19.344 55.49 19.282 55.366 19.22C55.242 19.158 55.18 19.096 55.18 18.972C55.056 18.91 54.994 18.786 54.932 18.6C54.932 18.476 54.87 18.476 54.808 18.476C54.808 18.352 54.746 18.228 54.684 18.104C54.622 17.98 54.56 17.856 54.498 17.794C54.436 17.732 54.374 17.67 54.312 17.608C54.126 17.422 54.374 17.112 54.126 16.926C54.064 16.864 54.064 16.864 54.126 16.802C54.126 16.74 54.064 16.678 54.002 16.616L53.94 16.554C53.94 16.492 53.94 16.43 53.94 16.368C53.878 16.368 53.816 16.306 53.754 16.306C53.754 16.182 53.754 16.058 53.692 15.934C53.568 15.872 53.506 15.686 53.444 15.562V15.438C53.444 15.376 53.382 15.314 53.382 15.252C53.32 15.19 53.32 15.128 53.258 15.066C53.196 15.004 53.134 14.942 53.01 14.88C52.886 14.818 52.824 14.756 52.824 14.632C52.762 14.57 52.7 14.508 52.638 14.446C52.514 14.384 52.452 14.322 52.452 14.26C52.39 14.26 52.328 14.26 52.266 14.26C52.266 14.198 52.266 14.136 52.266 14.074C52.142 14.074 52.08 14.012 52.08 13.888C52.018 13.826 51.956 13.764 51.832 13.702C51.708 13.702 51.584 13.64 51.46 13.64C51.398 13.578 51.336 13.578 51.212 13.578C51.15 13.578 51.088 13.64 50.964 13.702C50.902 13.764 50.84 13.826 50.778 13.826C50.592 13.95 50.406 14.074 50.406 14.322C50.406 14.322 50.406 14.322 50.406 14.384C50.344 14.322 50.344 14.198 50.344 14.136C50.53 14.136 50.592 13.95 50.716 13.826C50.778 13.764 50.778 13.702 50.84 13.578C50.902 13.392 50.964 13.268 51.026 13.082C51.026 13.02 51.088 12.896 51.088 12.834C51.088 12.71 51.088 12.586 51.088 12.462C51.088 12.4 51.088 12.338 51.026 12.214C50.964 12.09 50.902 11.966 50.902 11.78C50.902 11.718 50.84 11.656 50.84 11.594C50.778 11.47 50.778 11.408 50.716 11.284C50.654 11.222 50.654 11.16 50.592 11.098C50.53 11.036 50.406 10.974 50.344 10.912C50.22 10.788 50.282 10.602 50.096 10.54C50.034 10.478 49.972 10.354 49.91 10.292C49.848 10.292 49.848 10.23 49.848 10.168C49.848 10.106 49.786 10.044 49.724 9.98198C49.724 9.91998 49.724 9.91998 49.724 9.85798C49.6 9.73398 49.662 9.54798 49.538 9.48598C49.476 9.42398 49.476 9.42398 49.476 9.36198C49.476 9.23798 49.352 9.17598 49.29 9.05198C49.042 8.92798 48.98 9.11398 48.918 9.23798C48.794 9.42398 48.608 9.29998 48.484 9.23798C48.298 9.23798 48.174 9.17598 48.05 9.05198C47.988 8.98998 47.864 8.92798 47.802 8.86598C47.43 8.67998 47.12 8.43198 46.996 7.99798C46.934 7.93598 46.872 7.81198 46.81 7.74998C46.686 7.62598 46.748 7.43998 46.562 7.31598C46.376 7.19198 46.376 7.06798 46.376 6.88198C46.314 6.88198 46.252 6.88198 46.252 6.88198C46.252 6.81998 46.252 6.75798 46.19 6.69598C46.19 6.57198 46.19 6.44798 46.19 6.26198C46.19 6.26198 46.19 6.26198 46.252 6.19998C46.252 6.13798 46.252 6.13798 46.19 6.07598C46.004 5.88998 46.004 5.70398 45.942 5.45598C45.818 5.33198 45.756 5.20798 45.756 5.02198C45.756 4.95998 45.756 4.95998 45.756 4.89798C45.756 4.83598 45.694 4.77398 45.632 4.71198C45.57 4.64998 45.57 4.58798 45.508 4.52598C45.446 4.46398 45.384 4.40198 45.322 4.40198C45.26 4.33998 45.198 4.27798 45.136 4.21598C45.074 4.15398 45.012 4.09198 44.95 4.02998C44.888 3.96798 44.826 3.90598 44.702 3.84398C44.578 3.78198 44.392 3.71998 44.33 3.59598C44.144 3.59598 44.02 3.53398 43.896 3.40998C44.02 3.71998 43.896 3.71998 43.772 3.71998C43.772 3.65798 43.772 3.59598 43.71 3.59598C43.586 3.47198 43.4 3.47198 43.214 3.40998C43.152 3.40998 43.09 3.40998 43.09 3.34798C42.904 3.22398 42.656 3.09998 42.47 2.97598C42.346 2.91398 42.222 2.91398 42.036 2.91398C41.726 2.91398 41.478 2.85198 41.23 2.78998C41.106 2.72798 40.92 2.72798 40.796 2.72798C40.61 2.72798 40.424 2.85198 40.238 2.85198C40.238 2.85198 40.238 2.85198 40.176 2.85198C40.176 2.85198 40.176 2.78998 40.114 2.78998C39.99 2.78998 39.866 2.72798 39.742 2.72798C39.68 2.72798 39.68 2.72798 39.618 2.78998C39.556 2.78998 39.556 2.72798 39.494 2.72798C39.37 2.72798 39.246 2.72798 39.122 2.72798C39.122 2.66598 39.122 2.66598 38.998 2.66598C38.936 2.66598 38.874 2.66598 38.812 2.66598C38.626 2.47998 38.378 2.66598 38.192 2.47998C38.068 2.35598 37.882 2.41798 37.758 2.29398C37.82 1.98398 37.758 1.85998 37.572 1.79798C37.51 1.73598 37.448 1.73598 37.324 1.73598C37.2 1.67398 37.014 1.61198 36.89 1.61198C36.828 1.61198 36.766 1.54998 36.642 1.54998C36.58 1.54998 36.456 1.54998 36.394 1.54998C36.208 1.54998 35.96 1.48798 35.774 1.42598C35.65 1.42598 35.526 1.42598 35.402 1.42598C35.34 1.42598 35.278 1.48798 35.278 1.54998C35.278 1.42598 35.154 1.42598 35.092 1.36398C34.968 1.23998 34.782 1.23998 34.658 1.17798C34.596 1.17798 34.534 1.17798 34.472 1.11598C34.348 0.991979 34.162 1.05398 34.038 0.929979C33.976 0.929979 33.914 0.929979 33.914 0.867979C33.728 0.867979 33.542 0.867979 33.356 0.867979C33.356 0.805979 33.356 0.743979 33.294 0.681979C33.232 0.681979 33.17 0.681979 33.108 0.681979C32.922 0.557979 32.674 0.681979 32.426 0.495979C32.302 0.495979 32.178 0.495979 32.054 0.495979C31.62 0.247979 31.186 0.557979 30.752 0.309979C30.628 0.309979 30.504 0.309979 30.38 0.309979C30.256 0.185979 30.132 0.123979 29.946 0.0619794C29.822 0.0619794 29.698 0.0619794 29.636 0.0619794C28.954 0.185979 28.334 0.247979 27.652 0.0619794C27.528 0.0619794 27.404 -2.06158e-05 27.342 0.0619794C27.094 0.0619794 26.908 0.185979 26.722 0.309979C26.598 0.309979 26.474 0.309979 26.35 0.309979C25.978 0.495979 25.544 0.371979 25.172 0.433979C25.11 0.433979 25.048 0.495979 24.924 0.495979C24.614 0.371979 24.304 0.433979 23.994 0.495979C23.684 0.495979 23.312 0.495979 23.002 0.495979C22.754 0.681979 22.382 0.495979 22.134 0.681979C22.072 0.743979 22.072 0.743979 22.01 0.805979C22.01 0.743979 22.01 0.681979 22.01 0.619979C21.638 0.619979 21.266 0.557979 20.894 0.681979C20.708 0.681979 20.522 0.681979 20.336 0.681979C20.212 0.805979 20.026 0.743979 19.902 0.867979C19.778 0.991979 19.592 0.929979 19.468 1.05398C19.406 1.05398 19.344 1.05398 19.282 1.05398C19.158 1.11598 19.096 1.17798 19.034 1.23998C18.91 1.36398 18.724 1.30198 18.6 1.48798C18.538 1.54998 18.476 1.61198 18.352 1.67398C18.352 1.67398 18.29 1.67398 18.29 1.73598V1.79798C18.166 1.79798 18.042 1.79798 17.918 1.85998C17.856 1.92198 17.794 1.98398 17.732 2.04598C17.67 2.10798 17.608 2.10798 17.546 2.10798C17.484 2.10798 17.484 2.16998 17.484 2.23198C17.422 2.23198 17.36 2.23198 17.298 2.29398C17.236 2.29398 17.174 2.29398 17.112 2.35598C16.74 2.54198 16.368 2.47998 16.058 2.35598C15.686 2.35598 15.314 2.35598 14.88 2.35598C14.818 2.35598 14.756 2.41798 14.756 2.47998C14.632 2.41798 14.508 2.41798 14.384 2.47998C14.322 2.47998 14.26 2.47998 14.198 2.47998C14.198 2.47998 14.136 2.47998 14.136 2.54198C14.136 2.60398 14.136 2.60398 14.198 2.66598C14.074 2.66598 13.95 2.66598 13.764 2.66598C13.764 2.72798 13.764 2.78998 13.764 2.85198C13.64 2.85198 13.516 2.85198 13.33 2.85198C13.33 2.91398 13.33 2.97598 13.33 3.03798C13.206 3.03798 13.082 3.03798 12.958 3.03798C13.082 3.28598 13.206 3.16198 13.33 3.03798C13.516 3.03798 13.64 2.97598 13.764 2.85198C13.95 2.85198 14.136 2.85198 14.198 2.66598C14.384 2.66598 14.632 2.66598 14.756 2.47998C14.88 2.60398 14.88 2.66598 14.942 2.72798C15.004 2.78998 15.128 2.91398 15.252 2.97598C15.128 3.09998 15.066 3.22398 15.066 3.34798C14.756 3.53398 14.632 3.96798 14.26 4.15398L14.198 4.09198C14.074 3.96798 13.95 3.84398 13.826 3.78198C13.764 3.71998 13.702 3.71998 13.64 3.71998C13.454 3.59598 13.33 3.71998 13.268 3.84398C13.206 3.84398 13.206 3.84398 13.144 3.84398C12.896 3.84398 12.71 3.96798 12.648 4.21598C12.338 4.33998 12.09 3.90598 11.78 4.21598C11.718 4.27798 11.656 4.33998 11.594 4.40198C11.47 4.52598 11.47 4.71198 11.346 4.83598C11.222 4.95998 11.284 5.14598 11.098 5.20798C11.036 5.33198 10.85 5.33198 10.726 5.39398C10.664 5.26998 10.602 5.26998 10.478 5.20798C10.416 5.20798 10.354 5.20798 10.292 5.20798C9.91996 5.08398 9.60996 5.02198 9.29996 5.26998C9.17596 5.33198 9.11396 5.39398 9.11396 5.45598C9.05196 5.51798 8.92796 5.57998 8.92796 5.64198C8.86596 5.70398 8.74196 5.76598 8.74196 5.82798C8.67996 5.88998 8.55596 5.95198 8.55596 6.01398C8.43196 6.07598 8.36996 6.13798 8.36996 6.19998C8.30796 6.26198 8.18396 6.32398 8.18396 6.38598C8.12196 6.44798 8.05996 6.50998 7.99796 6.57198C7.93596 6.63398 7.87396 6.69598 7.74996 6.75798C7.56396 6.88198 7.31596 7.00598 7.31596 7.25398C7.37796 7.50198 7.62596 7.56398 7.87396 7.56398C8.05996 7.56398 8.24596 7.56398 8.49396 7.56398C8.55596 7.56398 8.61796 7.56398 8.61796 7.62598C8.55596 7.68798 8.43196 7.74998 8.30796 7.81198C8.12196 7.87398 7.87396 7.81198 7.68796 7.81198C7.43996 7.93598 7.43996 8.12198 7.43996 8.30798C7.50196 8.36998 7.62596 8.43198 7.68796 8.49398C7.81196 8.49398 7.87396 8.49398 7.99796 8.49398C8.18396 8.36998 8.49396 8.49398 8.67996 8.30798C8.74196 8.24598 8.80396 8.24598 8.86596 8.12198C8.92796 8.12198 9.05196 8.12198 9.11396 8.12198C9.17596 8.12198 9.23796 8.05998 9.29996 8.05998C9.36196 8.05998 9.42396 8.05998 9.48596 8.05998H9.54796H9.60996C9.60996 8.05998 9.60996 7.99798 9.67196 7.99798C9.73396 7.99798 9.73396 7.99798 9.79596 7.99798C10.044 7.99798 10.292 8.05998 10.478 7.87398C10.726 7.62598 11.098 7.87398 11.284 7.68798C11.346 7.62598 11.408 7.62598 11.47 7.62598C11.594 7.62598 11.656 7.68798 11.78 7.74998C11.966 7.74998 12.152 7.68798 12.338 7.56398C12.4 7.56398 12.524 7.62598 12.586 7.62598C13.082 7.62598 13.64 7.68798 14.074 7.31598C14.136 7.31598 14.198 7.31598 14.26 7.31598C14.942 7.62598 15.686 7.62598 16.43 7.50198C16.368 7.50198 16.306 7.56398 16.244 7.56398C16.182 7.56398 16.12 7.56398 16.058 7.56398C15.996 7.56398 15.934 7.62598 15.872 7.68798C15.314 7.31598 15.066 7.93598 14.694 8.05998C14.632 8.12198 14.57 8.12198 14.508 8.12198C14.446 8.12198 14.446 8.18398 14.446 8.24598C14.384 8.24598 14.322 8.24598 14.26 8.30798C14.198 8.36998 14.136 8.36998 14.074 8.36998C13.95 8.43198 13.764 8.43198 13.64 8.55598C13.516 8.67998 13.33 8.61798 13.206 8.74198C13.082 8.86598 12.896 8.80398 12.772 8.92798C12.71 8.98998 12.71 8.98998 12.648 8.98998C12.586 8.98998 12.524 9.05198 12.524 9.11398C12.462 9.11398 12.462 9.11398 12.4 9.11398C12.338 9.17598 12.276 9.17598 12.214 9.17598C12.09 9.29998 11.904 9.23798 11.78 9.36198C11.718 9.42398 11.718 9.42398 11.656 9.36198C11.532 9.36198 11.532 9.42398 11.532 9.48598C11.408 9.48598 11.284 9.48598 11.16 9.54798C10.974 9.73398 10.726 9.54798 10.54 9.73398C10.354 9.91998 10.106 9.73398 9.91996 9.91998C9.85796 9.91998 9.79596 9.98198 9.73396 9.91998C9.54796 10.106 9.29996 9.91998 9.11396 10.106C9.05196 10.106 8.98996 10.168 8.92796 10.106C8.80396 10.23 8.61796 10.168 8.49396 10.292C8.36996 10.416 8.18396 10.354 8.05996 10.54C7.99796 10.602 7.93596 10.664 7.87396 10.726C7.81196 10.788 7.81196 10.788 7.74996 10.788C7.62596 10.85 7.56396 10.912 7.50196 10.974C7.43996 11.036 7.31596 11.098 7.25396 11.16C7.19196 11.222 7.12996 11.284 7.00596 11.346C6.94396 11.408 6.88196 11.47 6.81996 11.532C6.75796 11.594 6.69596 11.656 6.63396 11.718C6.57196 11.78 6.50996 11.842 6.44796 11.904C6.38596 11.966 6.32396 12.028 6.26196 12.09C6.19996 12.152 6.13796 12.214 6.07596 12.338C6.01396 12.4 5.88996 12.462 5.88996 12.524C5.82796 12.586 5.70396 12.648 5.70396 12.772C5.57996 12.834 5.57996 13.082 5.45596 13.144C5.39396 13.206 5.33196 13.268 5.26996 13.33C5.20796 13.392 5.14596 13.454 5.08396 13.578C4.95996 13.702 4.95996 13.888 4.83596 13.95C4.77396 14.012 4.71196 14.074 4.64996 14.198C4.46396 14.632 4.46396 15.004 4.64996 15.438C4.83596 15.624 4.64996 15.872 4.89796 16.058C4.95996 16.182 5.08396 16.306 5.20796 16.306C5.14596 16.43 5.14596 16.616 5.08396 16.74C5.08396 16.802 5.08396 16.864 5.08396 16.926C5.02196 17.05 5.02196 17.174 5.02196 17.298C4.95996 17.298 4.95996 17.298 4.89796 17.422C4.89796 17.484 4.89796 17.546 4.83596 17.608C4.77396 17.732 4.71196 17.794 4.77396 17.918C4.64996 17.918 4.58796 17.98 4.52596 17.98C4.33996 18.166 4.40196 18.352 4.46396 18.538C4.40196 18.538 4.33996 18.538 4.27796 18.6C4.15396 18.724 4.21596 18.91 4.09196 19.034C3.96796 19.158 3.96796 19.344 3.90596 19.468C3.78196 19.53 3.84396 19.716 3.71996 19.84C3.59596 19.964 3.65796 20.15 3.47196 20.212C3.34796 20.336 3.40996 20.522 3.28596 20.646C3.16196 20.77 3.16196 20.956 3.09996 21.08C3.09996 21.142 3.09996 21.204 3.09996 21.266C2.91396 21.514 3.09996 21.824 2.91396 22.072C2.72796 22.258 2.85196 22.506 2.72796 22.692C2.60396 22.816 2.60396 23.002 2.54196 23.126C2.54196 23.188 2.54196 23.25 2.54196 23.312C2.41796 23.436 2.47996 23.622 2.35596 23.746C2.10796 23.994 2.35596 24.366 2.16996 24.552C2.04596 24.676 2.04596 24.8 2.10796 24.924L2.16996 24.986C2.16996 25.11 2.10796 25.296 1.98396 25.358C1.98396 25.42 1.98396 25.482 1.98396 25.544C1.98396 26.97 1.98396 28.458 1.98396 29.884C1.98396 29.946 1.98396 30.008 1.98396 30.07C1.98396 30.132 2.04596 30.194 2.10796 30.132C2.10796 30.194 2.10796 30.256 2.10796 30.318L2.16996 30.442H2.04596L1.98396 30.504C1.98396 30.566 1.98396 30.628 1.98396 30.69C1.98396 31.062 1.98396 31.434 1.98396 31.806C1.98396 31.992 1.98396 32.178 1.79796 32.364C1.79796 32.55 1.79796 32.798 1.79796 32.984C1.67396 33.17 1.67396 33.418 1.79796 33.604C1.79796 33.728 1.79796 33.852 1.79796 33.976C1.79796 33.976 1.85996 33.976 1.85996 34.038C1.85996 34.1 1.85996 34.162 1.79796 34.224C1.79796 34.286 1.79796 34.348 1.79796 34.41C1.98396 34.596 1.92196 34.844 1.98396 35.03C1.98396 35.402 1.98396 35.712 1.98396 36.084C1.98396 36.146 1.98396 36.208 1.98396 36.27C2.23196 36.58 1.92196 37.014 2.16996 37.324C2.16996 37.448 2.16996 37.572 2.16996 37.696C2.29396 37.82 2.23196 38.006 2.35596 38.13C2.35596 38.192 2.35596 38.254 2.35596 38.316C2.54196 38.502 2.35596 38.812 2.54196 38.936C2.72796 39.122 2.54196 39.37 2.72796 39.556C2.72796 39.618 2.72796 39.68 2.72796 39.742C2.78996 39.804 2.85196 39.928 2.91396 39.99C2.85196 40.114 2.85196 40.238 2.91396 40.362C2.91396 40.424 2.91396 40.486 2.91396 40.548C3.09996 40.734 2.91396 40.982 3.09996 41.168C3.09996 41.23 3.09996 41.292 3.09996 41.354C3.16196 41.54 3.22396 41.54 3.28596 41.478C3.28596 41.664 3.28596 41.912 3.28596 42.098H3.34796V42.16C3.40996 42.408 3.28596 42.656 3.40996 42.904C3.40996 42.966 3.47196 43.028 3.40996 43.09C3.47196 43.152 3.53396 43.214 3.59596 43.152L3.53396 43.214C3.47196 43.338 3.47196 43.462 3.59596 43.524C3.78196 43.71 3.59596 43.958 3.78196 44.144C3.84396 44.206 3.90596 44.33 3.96796 44.454C3.96796 44.454 3.96796 44.516 4.02996 44.516C4.02996 44.578 4.02996 44.64 4.02996 44.764C4.09196 44.764 4.09196 44.764 4.15396 44.764C4.15396 44.764 4.15396 44.826 4.21596 44.826C4.15396 44.95 4.15396 45.074 4.27796 45.198C4.27796 45.26 4.27796 45.322 4.27796 45.384C4.33996 45.446 4.40196 45.57 4.46396 45.632C4.46396 45.694 4.46396 45.756 4.46396 45.818C4.58796 45.942 4.52596 46.128 4.64996 46.252C4.77396 46.376 4.71196 46.562 4.83596 46.686C4.95996 46.81 4.89796 46.996 5.02196 47.12C5.08396 47.182 5.14596 47.244 5.20796 47.368C5.45596 47.492 5.57996 47.678 5.64196 47.988C5.70396 48.05 5.76596 48.112 5.82796 48.174C5.88996 48.174 5.95196 48.174 6.01396 48.174C6.01396 48.236 6.01396 48.298 6.01396 48.36C6.07596 48.36 6.13796 48.36 6.19996 48.36C6.19996 48.422 6.19996 48.484 6.19996 48.546C6.44796 48.608 6.69596 48.732 6.81996 48.98C6.88196 49.042 6.94396 49.104 7.06796 49.166C7.25396 49.166 7.37796 49.228 7.43996 49.414C7.50196 49.476 7.56396 49.538 7.68796 49.6C7.87396 49.6 7.99796 49.662 8.05996 49.786C8.36996 49.786 8.67996 49.724 8.86596 50.034C8.92796 50.096 8.98996 50.158 9.05196 50.22C9.29996 50.344 9.42396 50.53 9.48596 50.778C9.54796 50.84 9.60996 50.902 9.67196 50.964C9.73396 51.026 9.79596 51.088 9.85796 51.212C9.91996 51.274 9.98196 51.336 10.044 51.398C10.106 51.46 10.168 51.522 10.23 51.584C10.292 51.646 10.354 51.708 10.416 51.77C10.416 51.832 10.416 51.894 10.416 51.956C10.478 51.956 10.54 51.956 10.602 51.956C10.602 52.018 10.602 52.08 10.602 52.142C10.664 52.142 10.726 52.142 10.788 52.142C10.788 52.204 10.788 52.266 10.788 52.328H10.912H11.036C11.036 52.39 11.036 52.452 11.036 52.514C11.098 52.576 11.16 52.638 11.284 52.7C11.346 52.7 11.408 52.7 11.47 52.7C11.532 52.762 11.594 52.824 11.656 52.886C11.718 52.948 11.78 53.01 11.904 53.072C11.966 53.072 12.028 53.072 12.09 53.072C12.152 53.134 12.214 53.196 12.338 53.258C12.4 53.258 12.462 53.258 12.524 53.258C12.586 53.32 12.648 53.382 12.772 53.444C12.834 53.444 12.896 53.444 12.958 53.444C13.082 53.568 13.268 53.506 13.392 53.63C13.454 53.63 13.516 53.63 13.578 53.63C13.702 53.692 13.764 53.754 13.888 53.692C13.888 53.754 13.95 53.816 14.012 53.816C14.136 53.816 14.26 53.816 14.384 53.816C14.57 53.816 14.694 53.754 14.818 53.568C14.756 53.568 14.694 53.568 14.632 53.568C14.384 53.568 14.198 53.444 14.012 53.382C13.082 53.072 12.214 52.638 11.346 52.142C11.408 52.08 11.47 52.018 11.532 51.894C12.028 51.894 12.524 51.894 12.958 51.894C13.33 51.894 13.64 52.018 13.702 52.452C13.764 52.886 14.074 53.01 14.384 53.072C14.632 53.134 14.818 53.134 15.066 53.196C15.252 53.196 15.5 53.196 15.624 53.382C15.872 53.444 15.996 53.568 16.058 53.816C16.244 53.878 16.492 53.816 16.678 54.064C16.74 54.126 16.864 54.188 16.926 54.25H17.05H17.174C17.236 54.312 17.298 54.312 17.36 54.312C17.36 54.374 17.36 54.436 17.422 54.498C17.546 54.498 17.67 54.56 17.794 54.56C17.794 54.622 17.794 54.684 17.856 54.684C17.98 54.684 18.104 54.746 18.228 54.746C18.228 54.808 18.228 54.87 18.228 54.932C18.414 54.932 18.538 54.994 18.662 55.118C18.848 55.118 18.972 55.18 19.096 55.304C19.282 55.304 19.406 55.366 19.53 55.49C19.778 55.552 19.964 55.552 20.15 55.738C20.274 55.738 20.336 55.738 20.46 55.738C20.46 55.738 20.46 55.738 20.46 55.8C20.646 56.048 20.956 56.048 21.204 56.172C21.39 56.358 21.638 56.234 21.824 56.358C22.01 56.544 22.258 56.42 22.444 56.544C22.568 56.668 22.754 56.668 22.94 56.73H23.002L23.064 56.792C23.25 56.978 23.498 56.792 23.684 56.978C23.87 57.164 24.118 56.978 24.304 57.164C24.49 57.35 24.738 57.226 24.924 57.35C24.986 57.412 25.048 57.474 25.11 57.474C25.296 57.474 25.544 57.412 25.73 57.598C25.978 57.846 26.35 57.598 26.536 57.784C26.66 57.784 26.784 57.784 26.97 57.784C27.776 57.908 28.582 57.784 29.45 57.784C29.822 57.536 30.256 57.598 30.69 57.536C30.938 57.288 31.248 57.35 31.496 57.35C31.744 57.164 32.054 57.164 32.302 57.164C32.364 57.102 32.426 57.04 32.55 56.978C33.108 56.978 33.604 56.978 34.162 56.978C34.162 57.04 34.224 57.102 34.224 57.102C34.906 57.102 35.588 57.102 36.27 57.102C36.518 56.916 36.828 57.102 37.076 56.916C37.138 56.916 37.2 56.916 37.262 56.916C37.448 56.73 37.696 56.916 37.882 56.73C37.944 56.73 38.006 56.668 38.068 56.73C38.192 56.668 38.378 56.668 38.502 56.544C38.626 56.42 38.812 56.482 38.936 56.358V56.296C38.998 56.296 39.06 56.296 39.122 56.296C39.184 56.234 39.246 56.172 39.37 56.11C39.432 56.11 39.494 56.11 39.556 56.048C39.618 55.986 39.68 55.924 39.804 55.862C39.866 55.862 39.928 55.862 39.99 55.862C40.052 55.8 40.176 55.738 40.238 55.676C40.238 55.676 40.3 55.676 40.3 55.614C40.3 55.552 40.3 55.552 40.238 55.49C40.114 55.49 39.99 55.49 39.866 55.49C39.68 55.676 39.432 55.8 39.184 55.862C39.06 55.924 38.874 55.924 38.75 56.11C38.378 56.234 38.068 56.358 37.696 56.482C37.2 56.606 36.642 56.854 36.084 56.792C36.146 56.42 36.58 56.296 36.704 55.924C36.828 55.924 36.89 55.862 36.952 55.738C37.138 55.614 37.262 55.49 37.448 55.428C37.696 55.304 37.944 55.242 38.13 55.366C38.626 55.738 39.122 55.49 39.618 55.304C39.618 55.242 39.68 55.18 39.68 55.118C39.804 55.118 39.866 55.056 39.99 55.056C40.052 54.994 40.114 54.932 40.176 54.87C40.238 54.808 40.362 54.746 40.424 54.684C40.796 54.374 40.796 54.374 41.044 54.684C41.23 54.684 41.416 54.684 41.602 54.622C41.664 54.56 41.726 54.498 41.788 54.436C41.85 54.374 41.912 54.312 41.974 54.25C41.974 54.064 42.036 53.94 42.222 53.878C42.284 53.816 42.346 53.692 42.408 53.63C42.408 53.568 42.47 53.444 42.47 53.382C42.532 53.32 42.656 53.32 42.718 53.258C42.842 53.196 42.966 53.134 43.028 53.072C43.4 52.824 43.896 53.134 44.268 52.886L44.33 52.824H44.392C44.516 52.762 44.702 52.762 44.888 52.638C44.95 52.576 44.95 52.514 44.95 52.452C45.074 52.452 45.136 52.39 45.26 52.39C45.26 52.266 45.322 52.204 45.446 52.204C45.508 52.08 45.57 51.894 45.694 51.832C45.694 51.708 45.756 51.646 45.88 51.584C45.88 51.46 45.942 51.398 46.066 51.336C46.128 51.15 46.252 50.964 46.314 50.778C46.376 50.778 46.438 50.716 46.5 50.716C46.5 50.592 46.562 50.53 46.686 50.53C46.872 50.282 47.12 49.972 47.492 49.848C47.616 49.662 47.802 49.414 47.926 49.228C48.05 49.228 48.112 49.166 48.112 49.042C48.174 49.042 48.174 48.98 48.174 48.918C48.298 48.856 48.298 48.794 48.298 48.67C48.422 48.484 48.422 48.174 48.67 48.112C48.98 47.988 49.104 47.74 49.228 47.43C49.414 47.058 49.6 46.686 49.786 46.314C49.972 45.88 50.034 45.322 50.716 45.26C50.84 45.26 50.902 45.074 50.964 44.95C51.15 44.702 51.398 44.516 51.584 44.33C51.584 44.206 51.708 44.144 51.77 44.144C51.77 44.02 51.832 43.958 51.832 43.834C51.894 43.834 51.956 43.772 52.018 43.772C52.08 43.71 52.142 43.648 52.204 43.524C52.142 43.338 52.08 43.09 52.452 43.09C52.514 43.028 52.576 42.966 52.638 42.904C52.638 42.78 52.7 42.718 52.824 42.656C52.886 42.408 53.072 42.222 53.258 42.036C53.258 41.85 53.32 41.664 53.32 41.478C53.506 41.478 53.63 41.478 53.754 41.292C53.816 41.23 53.878 41.168 53.94 41.106C54.002 41.106 54.064 41.106 54.126 41.044C54.188 40.982 54.25 40.92 54.312 40.796C54.374 40.734 54.436 40.61 54.498 40.548C54.56 40.424 54.622 40.238 54.746 40.176C54.746 40.052 54.746 39.928 54.746 39.742C54.808 39.742 54.87 39.742 54.932 39.742C54.932 39.618 54.994 39.556 55.118 39.494C55.18 39.246 55.304 38.998 55.366 38.688C55.428 38.688 55.49 38.626 55.49 38.626C55.738 38.502 55.552 38.192 55.738 38.006C55.862 37.882 55.862 37.696 55.924 37.51C55.924 37.448 55.924 37.386 55.924 37.386C55.924 37.324 55.924 37.262 55.924 37.2C55.986 36.704 56.172 36.27 56.11 35.774C56.234 35.588 56.234 35.402 56.296 35.154C56.296 35.092 56.358 35.03 56.358 34.968C56.358 34.968 56.358 34.906 56.42 34.906C56.606 35.588 56.172 36.208 56.11 36.89C56.11 36.952 56.11 37.076 56.11 37.138C56.11 37.2 56.11 37.2 56.172 37.262C56.234 37.386 56.296 37.51 56.358 37.634C56.42 37.696 56.42 37.758 56.482 37.82C56.544 37.944 56.544 38.068 56.606 38.13C56.606 38.192 56.668 38.254 56.668 38.378C56.73 38.502 56.792 38.626 56.792 38.688C56.792 38.75 56.854 38.812 56.854 38.936C56.916 39.122 56.916 39.308 56.978 39.556C56.978 39.618 57.04 39.742 57.04 39.804C57.102 39.99 57.164 40.238 57.288 40.424H57.35C57.35 40.672 57.35 40.92 57.35 41.23C57.412 41.23 57.474 41.23 57.536 41.23C57.66 41.23 57.784 41.23 57.908 41.23C57.97 41.168 58.032 41.106 58.094 41.044C58.094 40.982 58.094 40.92 58.156 40.858C58.156 40.858 58.156 40.92 58.218 40.92C58.28 40.92 58.342 40.92 58.342 40.92C58.404 40.92 58.528 40.858 58.59 40.796C58.652 40.734 58.652 40.734 58.714 40.672C58.776 40.61 58.838 40.548 58.9 40.424C58.962 40.362 58.962 40.238 58.962 40.176C58.9 39.742 58.838 39.37 59.148 38.998C59.21 38.936 59.21 38.812 59.21 38.75C59.21 38.626 59.21 38.44 59.148 38.316C59.024 37.51 59.024 36.704 59.148 35.898C59.086 35.836 59.086 35.774 59.148 35.712C59.458 36.084 59.52 36.022 59.458 35.898ZM42.098 52.514C42.098 52.39 42.16 52.328 42.222 52.266C42.16 52.328 42.16 52.452 42.098 52.514ZM29.946 55.118C29.884 55.118 29.884 55.118 29.946 55.118V55.118ZM5.33196 21.7C5.33196 21.7 5.39396 21.7 5.33196 21.7C5.39396 21.7 5.39396 21.7 5.33196 21.7C5.33196 21.7 5.39396 21.7 5.33196 21.7ZM13.206 11.78C13.206 11.842 13.206 11.842 13.206 11.904C13.206 11.904 13.206 11.842 13.206 11.78ZM24.986 3.71998H25.048C24.986 3.78198 24.986 3.78198 24.986 3.71998C24.986 3.78198 24.986 3.78198 24.986 3.71998C24.986 3.78198 24.986 3.78198 24.986 3.71998ZM45.136 10.168C45.198 10.168 45.198 10.168 45.136 10.168C45.198 10.168 45.198 10.168 45.136 10.168C45.198 10.168 45.198 10.168 45.136 10.168ZM25.048 8.36998C25.048 8.30798 24.986 8.18398 24.986 8.12198C25.048 8.18398 25.11 8.24598 25.048 8.36998ZM13.206 14.074C13.206 14.012 13.206 14.012 13.206 14.074C13.206 14.012 13.206 14.012 13.206 14.074C13.206 14.012 13.206 14.012 13.206 14.074ZM11.78 21.08C11.718 21.08 11.718 21.08 11.78 21.08C11.718 21.08 11.718 21.08 11.78 21.08ZM37.572 7.93598C37.634 7.93598 37.634 7.93598 37.696 7.93598C37.634 7.99798 37.634 8.12198 37.634 8.18398C37.51 8.12198 37.51 7.99798 37.572 7.93598ZM28.458 49.786C28.458 49.724 28.458 49.724 28.458 49.786C28.458 49.724 28.458 49.724 28.458 49.786ZM19.654 41.602C19.654 41.602 19.654 41.664 19.592 41.664C19.592 41.664 19.592 41.602 19.654 41.602ZM13.95 19.344V19.282C13.95 19.282 13.95 19.282 13.95 19.344ZM23.126 25.482C23.126 25.42 23.126 25.42 23.126 25.482C23.126 25.42 23.126 25.482 23.126 25.482ZM27.466 26.908C27.466 26.908 27.466 26.846 27.404 26.846C27.404 26.908 27.466 26.908 27.466 26.908ZM18.724 24.366C18.724 24.428 18.724 24.428 18.786 24.49C18.724 24.428 18.724 24.428 18.724 24.366ZM19.964 26.474C20.026 26.474 20.026 26.474 19.964 26.474C20.026 26.474 20.026 26.474 19.964 26.474ZM36.208 34.782C36.208 34.72 36.208 34.72 36.208 34.782C36.208 34.72 36.208 34.72 36.208 34.782ZM28.582 27.9C28.52 27.9 28.458 27.9 28.458 27.9C28.52 27.838 28.644 27.838 28.706 27.838C28.644 27.838 28.582 27.9 28.582 27.9ZM12.4 30.38C12.4 30.442 12.4 30.442 12.4 30.442C12.4 30.38 12.338 30.38 12.4 30.38C12.338 30.38 12.338 30.38 12.4 30.38ZM36.146 34.1C36.146 34.038 36.146 33.976 36.146 33.914C36.146 33.976 36.146 34.038 36.146 34.1ZM42.036 23.126V23.188C41.85 23.312 41.726 23.126 41.54 23.126C41.478 23.126 41.478 23.126 41.478 23.064C41.726 23.126 41.912 23.126 42.036 23.126ZM29.884 22.134C29.946 22.134 29.946 22.134 29.884 22.134C29.946 22.134 29.946 22.134 29.884 22.134ZM40.982 27.652C41.044 27.652 41.044 27.652 40.982 27.652C41.044 27.652 41.044 27.652 40.982 27.652C41.044 27.652 41.044 27.652 40.982 27.652ZM49.228 24.428C49.228 24.428 49.228 24.366 49.228 24.428V24.428ZM25.73 21.514C25.73 21.514 25.668 21.514 25.73 21.514C25.73 21.452 25.73 21.452 25.73 21.452C25.73 21.514 25.73 21.514 25.73 21.514ZM20.894 12.152C20.894 12.214 20.832 12.214 20.894 12.152C20.832 12.214 20.832 12.214 20.894 12.152C20.832 12.214 20.832 12.214 20.832 12.214C20.832 12.214 20.832 12.214 20.894 12.152C20.832 12.214 20.832 12.214 20.894 12.152C20.832 12.214 20.832 12.214 20.894 12.152ZM37.324 34.472C37.386 34.534 37.386 34.596 37.386 34.658C37.386 34.658 37.324 34.596 37.324 34.472ZM41.044 27.714C41.044 27.652 41.044 27.652 41.044 27.714C41.044 27.652 41.044 27.714 41.044 27.714ZM47.802 32.116C47.864 32.178 47.864 32.24 47.926 32.302H47.864C47.802 32.302 47.74 32.24 47.74 32.178C47.802 32.178 47.802 32.116 47.802 32.116ZM28.148 11.408C28.148 11.408 28.148 11.47 28.21 11.47C28.148 11.47 28.148 11.47 28.148 11.408C28.148 11.47 28.148 11.408 28.148 11.408ZM21.886 47.678C21.886 47.678 21.824 47.678 21.886 47.678V47.678ZM28.644 50.778C28.644 50.778 28.706 50.778 28.644 50.778C28.706 50.778 28.706 50.778 28.644 50.778C28.706 50.778 28.644 50.778 28.644 50.778ZM33.046 45.136C32.984 45.074 32.922 45.012 32.86 44.95C33.17 44.888 33.418 44.702 33.48 44.392C33.48 44.33 33.418 44.206 33.604 44.268C33.728 44.206 33.914 44.144 34.038 44.144C33.976 44.206 33.852 44.268 33.79 44.33C33.666 44.516 33.666 44.64 33.914 44.702C33.542 44.764 33.232 44.826 33.046 45.136ZM44.95 33.542C45.012 33.542 45.012 33.604 45.012 33.666C45.012 33.728 44.95 33.79 44.888 33.79C44.826 33.79 44.764 33.79 44.764 33.79C44.888 33.79 44.95 33.666 44.95 33.542ZM27.714 9.67198C27.776 9.73398 27.838 9.73398 27.9 9.73398C27.838 9.73398 27.776 9.73398 27.714 9.67198ZM13.64 37.2C13.578 37.2 13.578 37.2 13.64 37.2C13.578 37.138 13.64 37.138 13.64 37.2C13.64 37.138 13.64 37.138 13.64 37.2ZM17.794 50.592C17.794 50.592 17.794 50.654 17.794 50.592C17.794 50.654 17.794 50.654 17.794 50.592C17.794 50.654 17.794 50.654 17.794 50.592ZM18.972 48.918C18.972 49.042 18.972 49.166 18.91 49.228C18.91 49.104 18.91 48.98 18.972 48.918ZM18.848 47.802C18.91 47.802 18.91 47.802 18.972 47.802C18.91 47.802 18.848 47.802 18.848 47.802ZM30.752 45.136C30.814 45.136 30.814 45.136 30.814 45.198C30.814 45.136 30.752 45.136 30.752 45.136ZM6.57196 21.08C6.63396 21.08 6.63396 21.08 6.57196 21.08C6.63396 21.08 6.63396 21.08 6.57196 21.08ZM8.92796 43.214C8.86596 43.214 8.86596 43.152 8.92796 43.214C8.86596 43.152 8.86596 43.152 8.92796 43.214C8.86596 43.152 8.86596 43.214 8.92796 43.214ZM15.872 51.026C15.872 51.026 15.934 51.026 15.872 51.026C15.934 51.026 15.934 51.026 15.872 51.026C15.934 51.026 15.934 51.026 15.872 51.026ZM18.972 48.732C18.972 48.732 19.034 48.732 18.972 48.732V48.732ZM19.778 46.438C19.84 46.438 19.84 46.438 19.778 46.438V46.438ZM19.964 47.492C19.902 47.43 19.902 47.43 19.964 47.492C19.902 47.43 19.902 47.43 19.964 47.492ZM42.904 33.852L42.842 33.79C42.842 33.852 42.904 33.852 42.904 33.852ZM52.328 21.266C52.328 21.39 52.328 21.452 52.328 21.576C52.266 21.452 52.266 21.328 52.328 21.266ZM48.174 13.392L48.112 13.33C48.112 13.33 48.174 13.33 48.174 13.392ZM34.844 14.508C34.906 14.508 34.906 14.508 34.844 14.508C34.906 14.508 34.906 14.508 34.844 14.508C34.906 14.508 34.906 14.508 34.844 14.508ZM19.22 10.54C19.158 10.54 19.158 10.54 19.22 10.54C19.158 10.54 19.158 10.54 19.22 10.54ZM11.408 41.23C11.408 41.292 11.222 41.292 11.16 41.292C11.222 41.23 11.284 41.23 11.408 41.23ZM20.212 52.018C20.212 51.956 20.274 51.956 20.212 52.018V52.018ZM20.274 52.886C20.274 52.886 20.212 52.824 20.274 52.886C20.212 52.824 20.212 52.824 20.274 52.886C20.274 52.824 20.274 52.886 20.274 52.886ZM26.164 53.196C26.164 53.196 26.164 53.134 26.226 53.134C26.226 53.134 26.226 53.134 26.288 53.134C26.226 53.196 26.164 53.196 26.164 53.196ZM10.354 13.826C10.292 13.826 10.292 13.826 10.354 13.826V13.826ZM7.43996 45.198C7.43996 45.26 7.43996 45.26 7.43996 45.198C7.43996 45.26 7.43996 45.198 7.43996 45.198ZM32.798 50.406C32.364 50.344 31.93 50.282 31.496 50.406C31.434 50.468 31.31 50.53 31.31 50.592C31.248 50.592 31.248 50.592 31.186 50.592C31.186 50.53 31.186 50.468 31.186 50.468C31 50.158 30.69 50.406 30.442 50.282C30.69 50.344 30.752 50.282 30.814 50.096C31.124 50.282 31.434 50.282 31.806 50.22C31.868 50.158 31.992 50.158 32.116 50.158C32.178 50.22 32.302 50.22 32.426 50.158H32.488H32.612C32.674 50.158 32.736 50.158 32.798 50.22C32.922 50.282 33.046 50.406 33.232 50.468C33.294 50.468 33.356 50.468 33.418 50.468C33.418 50.468 33.418 50.53 33.418 50.592C33.17 50.468 32.984 50.468 32.798 50.406ZM44.392 48.422C44.392 48.36 44.392 48.36 44.392 48.36C44.454 48.36 44.454 48.36 44.516 48.298C44.454 48.36 44.454 48.422 44.392 48.422ZM47.864 40.424C47.864 40.424 47.926 40.424 47.864 40.424C47.926 40.424 47.864 40.424 47.864 40.424ZM35.464 9.05198L35.402 8.98998C35.402 8.98998 35.464 8.98998 35.464 9.05198ZM30.566 5.64198C30.566 5.64198 30.504 5.64198 30.566 5.64198C30.504 5.64198 30.504 5.64198 30.566 5.64198C30.504 5.64198 30.504 5.64198 30.566 5.64198C30.504 5.64198 30.504 5.64198 30.566 5.64198C30.504 5.57998 30.504 5.57998 30.566 5.64198C30.504 5.57998 30.566 5.57998 30.566 5.64198ZM19.778 3.47198C19.84 3.40998 19.84 3.34798 19.902 3.28598L19.964 3.22398C20.088 3.22398 20.15 3.28598 20.15 3.40998C20.15 3.47198 20.15 3.53398 20.212 3.59598C20.088 3.53398 19.964 3.53398 19.778 3.47198ZM2.72796 29.76C2.66596 29.76 2.60396 29.76 2.60396 29.698C2.66596 29.698 2.72796 29.698 2.72796 29.76ZM11.346 50.344C11.346 50.406 11.346 50.406 11.346 50.344C11.346 50.406 11.346 50.344 11.346 50.344ZM20.832 53.444C20.832 53.506 20.832 53.506 20.832 53.444V53.444ZM37.138 50.902C37.138 50.84 37.138 50.84 37.138 50.778C37.138 50.778 37.138 50.778 37.2 50.778C37.138 50.84 37.138 50.84 37.138 50.902ZM45.074 49.352C45.074 49.352 45.074 49.29 45.012 49.29C45.074 49.29 45.074 49.29 45.136 49.29L45.074 49.352ZM42.284 3.96798C42.284 3.90598 42.284 3.90598 42.284 3.96798C42.284 3.90598 42.284 3.90598 42.284 3.96798C42.284 3.90598 42.284 3.90598 42.284 3.96798ZM10.54 45.694C10.54 45.694 10.602 45.694 10.54 45.694C10.602 45.756 10.602 45.818 10.602 45.818C10.602 45.756 10.54 45.756 10.54 45.694ZM57.784 23.746C57.66 23.746 57.598 23.746 57.536 23.684C57.598 23.684 57.722 23.746 57.784 23.746ZM17.67 2.47998V2.41798C17.67 2.47998 17.67 2.47998 17.67 2.47998ZM54.684 39.99C54.746 39.99 54.746 39.928 54.808 39.928V39.99L54.87 40.052C54.808 39.99 54.746 39.99 54.684 39.99Z" fill="#C42F42"/>
<path d="M5.33202 7.06806C5.45602 7.00606 5.51802 6.94406 5.58002 6.82006C5.64202 6.75806 5.76602 6.69606 5.76602 6.57206C5.82802 6.51006 5.95202 6.44806 6.01402 6.38606C6.13802 6.26206 6.32402 6.26206 6.44802 6.38606C6.51002 6.44806 6.57202 6.57206 6.69602 6.57206C7.00602 6.82006 7.13002 6.63406 7.31602 6.38606C7.37802 6.32406 7.44002 6.26206 7.50202 6.13806C7.62602 6.01406 7.62602 5.82806 7.75002 5.70406C7.87402 5.58006 7.87402 5.39406 7.93602 5.27006C7.93602 5.20806 7.93602 5.14606 7.93602 5.08406C7.93602 5.08406 7.99802 5.08406 7.99802 5.02206C7.99802 4.96006 7.99802 4.96006 7.93602 4.89806C7.87402 4.83606 7.81202 4.83606 7.75002 4.89806C7.68802 4.89806 7.62602 4.89806 7.56402 4.89806C7.44002 5.02206 7.25402 4.96006 7.13002 5.08406C7.06802 5.14606 7.00602 5.14606 7.00602 5.14606C6.88202 5.20806 6.82002 5.27006 6.75802 5.33206C6.69602 5.39406 6.69602 5.39406 6.63402 5.39406C6.32402 5.45606 6.26202 5.51806 6.20002 5.58006C6.07602 5.76606 5.89002 5.70406 5.76602 5.82806C5.64202 5.95206 5.45602 5.89006 5.39402 6.01406C5.27002 6.13806 5.08402 6.13806 4.96002 6.26206C4.89802 6.32406 4.77402 6.38606 4.71202 6.44806C4.58802 7.00606 4.83602 7.19206 5.33202 7.06806Z" fill="#C42F42"/>
<path d="M3.90598 8.05993C3.96798 7.99793 4.02998 7.93593 4.09198 7.81193C4.09198 7.74993 4.09198 7.68793 4.15398 7.62593C4.21598 7.56393 4.27798 7.50193 4.33998 7.43993C4.33998 7.37793 4.33998 7.31593 4.40198 7.25393C4.40198 7.06793 4.33998 7.00593 4.15398 7.06793C4.09198 7.12993 4.02998 7.19193 3.96798 7.25393C3.84398 7.31593 3.78198 7.37793 3.71998 7.43993H3.65798C3.65798 7.50193 3.59598 7.56393 3.53398 7.56393C3.47198 7.62593 3.40998 7.62593 3.34798 7.62593C3.22398 7.68793 3.16198 7.74993 3.09998 7.81193C3.28598 8.43193 3.59598 8.18393 3.90598 8.05993Z" fill="#C42F42"/>
<path d="M55.242 48.7319C55.118 48.7319 54.994 48.7319 54.932 48.7319C54.684 48.8559 54.808 49.0419 54.746 49.2279C54.746 49.2279 54.746 49.2899 54.808 49.2899C54.746 49.2899 54.746 49.2899 54.684 49.2899C54.622 49.2899 54.56 49.2899 54.498 49.2279C54.436 49.2899 54.374 49.2899 54.312 49.2899C54.188 49.3519 54.188 49.4139 54.25 49.4759C54.188 49.4759 54.126 49.4759 54.064 49.4759C54.002 49.5999 53.816 49.6619 53.692 49.7239C53.63 49.8479 53.568 49.9099 53.506 49.9099C53.506 50.0339 53.506 50.1579 53.506 50.2819C53.568 50.3439 53.63 50.4059 53.754 50.4679C53.878 50.4059 54.002 50.3439 54.126 50.3439C54.126 50.2199 54.188 50.1579 54.312 50.0959C54.498 50.0339 54.746 49.9719 54.932 49.9099C54.994 49.8479 55.056 49.7859 55.118 49.7239C55.118 49.6619 55.118 49.5999 55.118 49.5999C55.18 49.5999 55.242 49.5999 55.304 49.5379C55.428 49.4139 55.366 49.2279 55.552 49.1039C55.614 48.9179 55.366 48.8559 55.242 48.7319Z" fill="#C42F42"/>
<path d="M58.1561 45.8179C58.0941 45.8179 58.0321 45.8799 57.9701 45.8179C57.7841 46.0039 57.7841 46.1899 57.9701 46.4379C58.0321 46.4999 58.0941 46.4999 58.1561 46.4379C58.2181 46.3759 58.3421 46.3139 58.3421 46.1899C58.3421 46.1279 58.3421 46.0659 58.4041 46.0039C58.4661 45.8179 58.3421 45.7559 58.1561 45.8179Z" fill="#C42F42"/>
<path d="M5.76595 9.73403C5.70395 9.73403 5.64195 9.73403 5.57995 9.73403C5.39395 9.85803 5.33195 9.98203 5.57995 10.168C5.70395 10.044 5.88995 10.106 6.01395 9.98203C6.07595 9.73403 5.95195 9.67203 5.76595 9.73403Z" fill="#C42F42"/>
<path d="M4.15405 10.1679C4.15405 10.2299 4.15405 10.2919 4.15405 10.2919C4.34005 10.4779 4.52605 10.4779 4.77405 10.2919C4.77405 10.2919 4.77405 10.2919 4.83605 10.2299C4.83605 10.1679 4.83605 10.1679 4.77405 10.1059C4.71205 10.0439 4.65005 9.98192 4.52605 9.91992C4.46405 9.91992 4.40205 9.91992 4.40205 9.91992C4.27805 10.0439 4.21605 10.1059 4.15405 10.1679Z" fill="#C42F42"/>
<path d="M56.11 44.206C56.048 44.206 55.986 44.206 55.924 44.206C55.924 44.082 55.924 43.958 55.924 43.772C55.738 43.834 55.738 44.02 55.8 44.206C55.8 44.516 55.738 44.888 55.738 45.198C55.738 45.26 55.8 45.322 55.862 45.322C55.924 45.322 55.986 45.322 56.048 45.26C56.234 45.074 56.234 44.826 56.172 44.578C56.172 44.516 56.234 44.454 56.234 44.392C56.11 44.33 56.11 44.268 56.11 44.206Z" fill="#C42F42"/>
<path d="M51.212 47.43C50.84 47.182 50.716 47.2441 50.53 47.6161C50.344 48.0501 50.158 48.4221 49.972 48.8561C49.786 49.1661 49.538 49.414 49.166 49.352C48.67 49.29 48.422 49.538 48.236 49.972C48.174 50.22 47.988 50.406 47.864 50.592C47.864 50.654 47.864 50.7161 47.802 50.7781C47.678 50.9021 47.74 51.088 47.616 51.274C47.616 51.336 47.616 51.3981 47.616 51.3981C47.616 51.3981 47.554 51.398 47.554 51.46C47.554 51.522 47.554 51.522 47.616 51.584C47.802 51.646 47.988 51.584 48.174 51.522C48.236 51.46 48.298 51.3981 48.36 51.3361C48.422 51.2741 48.484 51.212 48.546 51.15C48.608 51.088 48.67 51.026 48.732 50.964C48.794 50.902 48.856 50.8401 48.918 50.7781C48.98 50.7161 49.042 50.654 49.104 50.592C49.166 50.53 49.228 50.468 49.29 50.344C49.352 50.282 49.414 50.2201 49.476 50.0961C49.538 49.9721 49.6 49.8481 49.724 49.7861C49.786 49.7241 49.848 49.662 49.91 49.6C49.972 49.538 50.034 49.476 50.096 49.414C50.158 49.352 50.282 49.2901 50.282 49.1661C50.468 48.9801 50.592 48.7321 50.716 48.5461C50.778 48.4841 50.902 48.3601 50.902 48.2361C50.902 48.1741 50.902 48.112 50.964 48.112C51.026 48.05 51.088 47.926 51.088 47.802C51.088 47.74 51.088 47.7401 51.15 47.6781C51.336 47.6161 51.274 47.492 51.212 47.43Z" fill="#C42F42"/>
<path d="M52.204 44.764C52.08 44.888 51.956 44.95 51.894 45.074C51.584 45.632 51.398 46.19 51.77 46.748C51.77 46.686 51.77 46.686 51.832 46.624C51.894 46.562 51.956 46.438 52.018 46.376C52.018 46.314 52.018 46.252 52.08 46.252C52.204 46.128 52.142 45.942 52.266 45.818C52.266 45.756 52.266 45.694 52.328 45.632C52.39 45.508 52.39 45.322 52.514 45.26C52.514 44.95 52.514 44.826 52.204 44.764Z" fill="#C42F42"/>
<path d="M59.0241 43.772C58.9621 43.834 58.9001 43.896 58.8381 43.958C58.8381 44.206 58.7141 44.392 58.5901 44.578C58.5901 44.578 58.5281 44.578 58.5281 44.64C58.5281 44.702 58.5281 44.702 58.5901 44.764C58.7141 44.888 58.8381 44.888 59.0241 44.764C59.0241 44.64 59.0241 44.516 59.0241 44.33C59.0861 44.268 59.1481 44.206 59.2101 44.144C59.2101 44.02 59.1481 43.896 59.0241 43.772Z" fill="#C42F42"/>
<path d="M56.916 40.672C56.792 40.548 56.854 40.362 56.73 40.238C56.606 40.114 56.668 39.928 56.482 39.866C56.42 39.742 56.358 39.68 56.296 39.618C56.234 39.556 56.172 39.494 56.11 39.432C55.862 39.432 55.738 39.556 55.738 39.804C55.738 40.796 55.738 41.788 55.676 42.78C55.676 43.028 55.738 43.152 55.924 43.338C55.986 43.338 56.048 43.338 56.11 43.338C56.172 43.4 56.234 43.4 56.296 43.338C56.296 43.028 56.296 42.656 56.296 42.346C56.234 42.284 56.234 42.284 56.296 42.222C56.234 41.974 56.11 41.788 56.296 41.54C56.42 41.416 56.606 41.478 56.668 41.292C56.73 41.23 56.792 41.168 56.916 41.106C57.04 40.982 57.04 40.796 56.916 40.672Z" fill="#C42F42"/>
<path d="M1.67401 10.168C1.55001 10.168 1.42601 10.168 1.24001 10.168C1.17801 10.292 1.05401 10.354 0.930012 10.354C0.620012 10.354 0.310012 10.354 0.0620117 10.416C0.0620117 10.54 0.0620117 10.664 0.0620117 10.85C0.186012 10.912 0.310012 10.974 0.434012 11.036C0.558012 10.912 0.682012 10.85 0.868012 10.912C1.05401 10.912 1.24001 10.912 1.48801 10.912C1.55001 10.85 1.61201 10.788 1.67401 10.726C1.67401 10.416 1.67401 10.292 1.67401 10.168Z" fill="#C42F42"/>
<path d="M49.662 48.236C49.662 48.174 49.6 48.174 49.662 48.236C49.6 48.174 49.538 48.236 49.538 48.236L49.6 48.298C49.6 48.236 49.662 48.236 49.662 48.236Z" fill="#C42F42"/>
<path d="M45.508 40.796C45.446 40.796 45.446 40.92 45.446 40.982C45.508 41.168 45.632 41.23 45.756 41.354C45.756 41.168 45.818 40.982 45.632 40.858C45.694 40.796 45.57 40.796 45.508 40.796Z" fill="#C42F42"/>
</svg>
